name C:\Users\u0101727\Documents\MyRepositories\upper-imu-dc\Results\main_tracking\Case_14\ABD01_angularVelocities_groundFrame.mot
datacolumns 4
datarows 117
range 2.81000000 3.97000000
endheader 
time	radius_imu_x	radius_imu_y	radius_imu_z	
          2.81000000	          0.19523103	         -0.64478385	          0.03932401	
          2.82000000	          0.14868031	         -0.62985497	          0.04953935	
          2.83000000	          0.12333033	         -0.59305974	          0.05446899	
          2.84000000	          0.10999700	         -0.52977328	          0.05281372	
          2.85000000	          0.10254403	         -0.44248823	          0.04498324	
          2.86000000	          0.09767037	         -0.34017429	          0.03296599	
          2.87000000	          0.09426580	         -0.23662849	          0.01988335	
          2.88000000	          0.09265805	         -0.14766834	          0.00927138	
          2.89000000	          0.09387959	         -0.08808274	          0.00433808	
          2.90000000	          0.09895849	         -0.06839233	          0.00722476	
          2.91000000	          0.10829278	         -0.09189592	          0.01838924	
          2.92000000	          0.12123426	         -0.15296698	          0.03630648	
          2.93000000	          0.13605439	         -0.23789081	          0.05773275	
          2.94000000	          0.15037417	         -0.32879882	          0.07861518	
          2.95000000	          0.16185643	         -0.40913633	          0.09529096	
          2.96000000	          0.16873197	         -0.46750549	          0.10531165	
          2.97000000	          0.16989724	         -0.49809156	          0.10754296	
          2.98000000	          0.16476877	         -0.49919802	          0.10187911	
          2.99000000	          0.15324431	         -0.47254414	          0.08910942	
          3.00000000	          0.13581038	         -0.42366739	          0.07097338	
          3.01000000	          0.11356054	         -0.36179206	          0.05005220	
          3.02000000	          0.08799536	         -0.29831094	          0.02934995	
          3.03000000	          0.06069799	         -0.24457519	          0.01175887	
          3.04000000	          0.03303660	         -0.21000216	         -0.00035500	
          3.05000000	          0.00597729	         -0.20095110	         -0.00536886	
          3.06000000	         -0.01999459	         -0.22024266	         -0.00247813	
          3.07000000	         -0.04489071	         -0.26700104	          0.00829265	
          3.08000000	         -0.06920001	         -0.33671766	          0.02611360	
          3.09000000	         -0.09380612	         -0.42180219	          0.04944213	
          3.10000000	         -0.11979488	         -0.51297090	          0.07624760	
          3.11000000	         -0.14816282	         -0.60135451	          0.10437268	
          3.12000000	         -0.17951797	         -0.68060273	          0.13192809	
          3.13000000	         -0.21387893	         -0.74816358	          0.15757829	
          3.14000000	         -0.25062720	         -0.80536549	          0.18064243	
          3.15000000	         -0.28860988	         -0.85645632	          0.20103109	
          3.16000000	         -0.32635636	         -0.90702497	          0.21908597	
          3.17000000	         -0.36235400	         -0.96226797	          0.23537801	
          3.18000000	         -0.39531969	         -1.02550464	          0.25049961	
          3.19000000	         -0.42441017	         -1.09727158	          0.26489581	
          3.20000000	         -0.44933169	         -1.17517372	          0.27877430	
          3.21000000	         -0.47033714	         -1.25440200	          0.29207767	
          3.22000000	         -0.48812518	         -1.32863103	          0.30445916	
          3.23000000	         -0.50367173	         -1.39106807	          0.31525726	
          3.24000000	         -0.51803329	         -1.43556603	          0.32354989	
          3.25000000	         -0.53217101	         -1.45765366	          0.32834593	
          3.26000000	         -0.54684423	         -1.45515710	          0.32884504	
          3.27000000	         -0.56259251	         -1.42816841	          0.32463210	
          3.28000000	         -0.57977564	         -1.37853512	          0.31576147	
          3.29000000	         -0.59861136	         -1.30934827	          0.30279966	
          3.30000000	         -0.61917383	         -1.22471206	          0.28687780	
          3.31000000	         -0.64136769	         -1.12964590	          0.26971032	
          3.32000000	         -0.66491559	         -1.02981581	          0.25350593	
          3.33000000	         -0.68937876	         -0.93099419	          0.24075017	
          3.34000000	         -0.71420775	         -0.83838007	          0.23389742	
          3.35000000	         -0.73881634	         -0.75595697	          0.23503177	
          3.36000000	         -0.76267658	         -0.68597103	          0.24555238	
          3.37000000	         -0.78543052	         -0.62854196	          0.26594353	
          3.38000000	         -0.80699823	         -0.58147353	          0.29570978	
          3.39000000	         -0.82763288	         -0.54042766	          0.33352808	
          3.40000000	         -0.84786063	         -0.49957318	          0.37754552	
          3.41000000	         -0.86829132	         -0.45260325	          0.42565024	
          3.42000000	         -0.88937799	         -0.39384995	          0.47560250	
          3.43000000	         -0.91124261	         -0.31922400	          0.52504392	
          3.44000000	         -0.93363063	         -0.22681842	          0.57147156	
          3.45000000	         -0.95597384	         -0.11717168	          0.61228307	
          3.46000000	         -0.97750110	          0.00672671	          0.64496122	
          3.47000000	         -0.99734351	          0.13963513	          0.66736356	
          3.48000000	         -1.01460793	          0.27445370	          0.67800694	
          3.49000000	         -1.02841858	          0.40279569	          0.67624821	
          3.50000000	         -1.03794390	          0.51568647	          0.66233038	
          3.51000000	         -1.04242968	          0.60429029	          0.63735892	
          3.52000000	         -1.04126306	          0.66060424	          0.60327728	
          3.53000000	         -1.03406304	          0.67799163	          0.56294585	
          3.54000000	         -1.02086539	          0.65240231	          0.51956076	
          3.55000000	         -1.00212709	          0.58280966	          0.47637022	
          3.56000000	         -0.97889805	          0.47594278	          0.43220128	
          3.57000000	         -0.95242856	          0.34836381	          0.37803861	
          3.58000000	         -0.92431227	          0.26083288	          0.26498373	
          3.59000000	         -0.89688187	          0.26999478	          0.03994520	
          3.60000000	         -0.85931034	          0.13052491	         -0.07358403	
          3.61000000	         -0.82014346	         -0.15170708	         -0.05469633	
          3.62000000	         -0.78453763	         -0.40340329	         -0.06525336	
          3.63000000	         -0.75407496	         -0.66557333	         -0.05771661	
          3.64000000	         -0.73000155	         -0.91470006	         -0.04654525	
          3.65000000	         -0.71294392	         -1.17932655	         -0.00290469	
          3.66000000	         -0.70426565	         -1.42936543	          0.05223863	
          3.67000000	         -0.70148649	         -1.64271143	          0.09480772	
          3.68000000	         -0.70532468	         -1.84048644	          0.14772345	
          3.69000000	         -0.71515237	         -2.00481507	          0.19413937	
          3.70000000	         -0.72993254	         -2.13449016	          0.23168770	
          3.71000000	         -0.74857611	         -2.23042356	          0.25934457	
          3.72000000	         -0.76987738	         -2.29730005	          0.28019287	
          3.73000000	         -0.79276637	         -2.33939311	          0.29637217	
          3.74000000	         -0.81626765	         -2.36171256	          0.31060826	
          3.75000000	         -0.83961579	         -2.36916916	          0.32585208	
          3.76000000	         -0.86228594	         -2.36564248	          0.34414586	
          3.77000000	         -0.88394619	         -2.35437494	          0.36741704	
          3.78000000	         -0.90440174	         -2.33668722	          0.39604384	
          3.79000000	         -0.92349374	         -2.31184319	          0.42846829	
          3.80000000	         -0.94105323	         -2.27773006	          0.46149042	
          3.81000000	         -0.95691143	         -2.23229240	          0.49146789	
          3.82000000	         -0.97095312	         -2.17474401	          0.51551946	
          3.83000000	         -0.98316552	         -2.10605490	          0.53222645	
          3.84000000	         -0.99364686	         -2.02867652	          0.54167723	
          3.85000000	         -1.00257420	         -1.94582687	          0.54503145	
          3.86000000	         -1.01016166	         -1.86075041	          0.54393251	
          3.87000000	         -1.01663252	         -1.77622732	          0.54004486	
          3.88000000	         -1.02220499	         -1.69436243	          0.53478319	
          3.89000000	         -1.02708281	         -1.61653382	          0.52913926	
          3.90000000	         -1.03144226	         -1.54339015	          0.52351111	
          3.91000000	         -1.03541420	         -1.47489726	          0.51757801	
          3.92000000	         -1.03907090	         -1.41051567	          0.51037777	
          3.93000000	         -1.04243062	         -1.34954577	          0.50068051	
          3.94000000	         -1.04547920	         -1.29153552	          0.48754285	
          3.95000000	         -1.04818534	         -1.23653511	          0.47075075	
          3.96000000	         -1.05048368	         -1.18503381	          0.45089051	
          3.97000000	         -1.05222989	         -1.13761499	          0.42902436	
